<svg xmlns="http://www.w3.org/2000/svg" viewBox="0 0 980 980" fill="none" shape-rendering="auto"><metadata xmlns:rdf="http://www.w3.org/1999/02/22-rdf-syntax-ns#" xmlns:xsi="http://www.w3.org/2001/XMLSchema-instance" xmlns:dc="http://purl.org/dc/elements/1.1/" xmlns:dcterms="http://purl.org/dc/terms/"><rdf:RDF><rdf:Description><dc:title>Lorelei</dc:title><dc:creator>Lisa Wischofsky</dc:creator><dc:source xsi:type="dcterms:URI">https://www.figma.com/community/file/1198749693280469639</dc:source><dcterms:license xsi:type="dcterms:URI">https://creativecommons.org/publicdomain/zero/1.0/</dcterms:license><dc:rights>Remix of „Lorelei” (https://www.figma.com/community/file/1198749693280469639) by „Lisa Wischofsky”, licensed under „CC0 1.0” (https://creativecommons.org/publicdomain/zero/1.0/)</dc:rights></rdf:Description></rdf:RDF></metadata><mask id="viewboxMask"><rect width="980" height="980" rx="0" ry="0" x="0" y="0" fill="#fff" /></mask><g mask="url(#viewboxMask)"><g transform="translate(10 -60)"><path fill-rule="evenodd" clip-rule="evenodd" d="M629 155c-11-6-24-9-37-9-17 1-34 4-50 11-19 9-38 22-49 40-5 7-10 16-9 25a91 91 0 0 0-47-16c-28-3-56 4-81 14a286 286 0 0 0-162 190l-2 3a342 342 0 0 0-41 198 370 370 0 0 0 51 158 3136 3136 0 0 0 19 111c2 3 3 7 7 8l6 1 6-3c8-9 14-19 20-30 5 7 11 13 20 16 11 3 24 3 35-1h6l2-1c12 0 24-2 35-4a761 761 0 0 1 52-8l17-2 39-6a598 598 0 0 1 94 1l4 1c11 1 21 2 31 5l6 2 16 5c8 4 16 6 25 5 18-1 35-7 50-17 7-4 13-10 13-19l5 4c9 7 19 14 29 16h11l-3-10-1-4c-12-27-19-58-19-88a851 851 0 0 1 9-113l5-52 2-24a620 620 0 0 0 2-121l-3-23-2-15v-3l-2-18-1-9 1-5a151 151 0 0 0-62-125 180 180 0 0 0-74-32l12-1c24 1 48 5 70 14a106 106 0 0 1 57 53l5 16 1 4 2-2c1-14-3-28-10-40-8-12-17-23-28-31-20-16-46-24-71-27-25-4-52-4-76 4l-27 11-14 7c5-12 14-22 24-31 8-6 17-12 26-15a109 109 0 0 1 57-5l6 1c3-1 5-6 3-9l-6-3-4-2ZM188 463h-1a333 333 0 0 0-19 109 377 377 0 0 0 30 151l-3-28-2-13a1288 1288 0 0 1-8-169v-3l1-33v-5l2-9Z" fill="#000000"/><path d="M528 244c41 6 80 22 113 47 28 21 50 49 65 81 13 28 20 60 19 91-1 15-3 30-8 44h-2l1-21c1-30-2-59-13-87-10-30-28-57-50-79-42-40-98-62-156-63a243 243 0 0 0-196 94 207 207 0 0 0-40 139l2 25c8 0 19 0 25 7l-3 3-17 1c-12 1-24 5-33 13a64 64 0 0 0-17 39c-5 32 12 65 39 83 16 10 36 15 55 9 4-2 9-5 14-3 3 1 4 4 5 7a251 251 0 0 0 90 100c8 7 18 13 28 18 18 8 38 14 57 19l32 8c5 1 9 1 13 3l-4 1c-25 2-48-3-72-10-12-3-23-7-34-12a306 306 0 0 1-84-63l2 28c1 17 0 35-6 52-4 12-11 24-19 34-10 10-22 19-34 26-10 7-21 14-32 18l-16 5 9-9 31-20 22-17a95 95 0 0 0 32-56c2-14 2-28 2-43v-27c-10-14-22-29-27-46-17 8-38 7-55-1-17-7-32-19-43-33-12-17-19-36-21-56s2-40 15-56c9-10 22-18 35-21-4-14-6-29-6-44a234 234 0 0 1 83-173 249 249 0 0 1 199-55Z" fill="#000"/><path d="M653 320c22 22 40 49 50 79 11 28 14 57 13 87l-1 21-5 15-2 13 2 56c0 21 1 42-1 63l-3 47c-2 16-7 31-14 45-11 18-26 33-44 44-13 8-27 12-41 16l-38 11-17 3c0 1 1 2 3 2 8 5 17 5 26 4-3 7-4 14-2 22 3 7 11 11 17 14 12 6 24 7 36 9 7 6 14 14 16 24 2 8 2 16-2 23-5 10-14 18-24 23-13 8-27 14-42 18a468 468 0 0 1-222-1c-17-4-33-9-48-17-12-6-23-13-32-22-5-7-9-14-10-23 11-4 22-11 32-18 12-7 24-16 34-26 8-10 15-22 19-34 6-17 7-35 6-52l-2-28 22 23c19 15 40 30 62 40 11 5 22 9 34 12 24 7 47 12 72 10l4-1c-4-2-8-2-13-3l-32-8c-19-5-39-11-57-19l-29-17c-11-9-23-17-33-27a251 251 0 0 1-56-74c-1-3-2-6-5-7-5-2-10 1-14 3-19 6-39 1-55-9a88 88 0 0 1-39-83c1-14 7-28 17-39 9-8 21-12 33-13l17-1 3-3c-6-7-17-7-25-7l-2-25a207 207 0 0 1 40-139 243 243 0 0 1 196-94c58 1 114 23 156 63Z" fill="#ffffff"/><path d="M710 522c3 0 3 4 4 6 3 11 4 23 5 34l2 21c1 22 2 43 1 65-1 21-1 44-5 65a136 136 0 0 1-80 99c-15 7-31 11-48 13v15c1 3 3 4 5 6 12 6 23 8 36 11 12 3 24 5 36 11-3 3-7 4-11 4-7 1-15-1-23-1-12-2-24-3-36-9-6-3-14-7-17-14-2-8-1-15 2-22-9 1-18 1-26-4-2 0-3-1-3-2l17-3 38-11c14-4 28-8 41-16 18-11 33-26 44-44 7-14 12-29 14-45l3-47c2-21 1-42 1-63l-2-56 2-13ZM252 549c8 0 17 1 23 7 5 4 10 9 12 15 1 3 0 6-2 8l-13 8c-7 6-7 19 0 25 6 5 14 8 21 11 2 0 5 1 6 3-1 2-3 3-5 3-10 0-20-3-28-9-5-3-8-8-9-13-2-8-2-17 4-24 4-6 11-9 18-12-4-5-7-11-14-13-7-3-15-3-22-5l9-4Z" fill="#000"/><path d="m693 510-2 7c-3 5-6 9-11 12s-11 4-17 5l-18 2c-5 0-8 3-10 6l-7 7c-2 1-5-1-4-3 1-8 7-14 11-20 3-3 7-7 12-7l30-5c5-1 10-4 16-4ZM388 514c12-1 21 3 32 4 15 2 30 4 45 4l24 2c8 1 17 0 24 4s12 10 16 16c1 2 2 4 0 7-1 1-3 0-4-1-4-2-7-6-11-7l-12-1-28-1-22-1c-10-1-20-1-30-5-7-2-12-6-19-9l-12-9c-2-1-3-1-3-3Z" fill="#000000"/><path d="M494 368c5 0 9 3 11 7 8 8 15 18 20 28 2 5 4 10 3 15-1 2-2 4-4 3l-5-6c-4-8-10-15-16-22 0 4 1 10-1 13-1 4-4 6-8 6-5 0-10-4-14-7l-13-5c-2 1-4 3-6 2l-11-2-20-2-18 2c3-4 8-6 13-8 10-5 21-5 32-4 3 1 6-2 10-1 10 0 17 4 25 10l-4-19c-1-4 1-9 6-10ZM637 383c3 1 5 2 5 5 0 4-3 8-5 13 4-2 7-5 11-5 3 1 4 3 6 6 5-2 12-4 18-2 3 1 4 3 5 5-3 3-6 5-10 6-5 2-11 4-16 4-3 0-5-2-7-3l-10 6c-3 0-6-1-7-4l-1-8-8 15-4 6c-2 0-3 0-4-2-2-3 1-8 2-11 3-8 8-16 14-23 3-3 6-7 11-8Z" fill="#000000"/><path d="m591 528 2 2 7 22c4 8 10 15 15 23 4 6 6 13 5 20-1 6-4 12-9 16-7 7-16 12-25 16-5 3-11 4-17 2l5-4c11-9 25-14 36-24 2-2 4-6 4-9-1-7-5-11-8-16-5-9-10-16-13-25-2-7-4-16-2-23Z" fill="#000000"/><path d="m636 651-7 8-17 16c-9 10-19 18-32 22-18 6-38 4-57 0-10-3-21-7-31-13l-6-5c0-3 2-4 4-4l17 5 33-4c13-2 27-3 39 0l5-1 19-8c4-2 8-3 13-3 6-4 13-10 20-13Z" fill="#000000"/><path fill-rule="evenodd" clip-rule="evenodd" d="M482 429c13 2 26 7 37 15 3-2 7-2 10 0a94 94 0 0 1 39 90c9-6 20-8 30-5-1-34 16-68 44-87 11-7 25-12 39-12 9 0 19 2 27 7l4 1 5 1c10 7 18 16 23 26 8 16 10 33 8 51-3 29-20 57-45 72-14 8-31 13-47 11-13-2-25-8-35-17-9-8-15-19-19-31-1-4-6-7-9-9-9-3-18 0-26 5l-5 7c-7 19-21 36-39 47a99 99 0 0 1-57 14c-31-1-60-18-76-45a92 92 0 0 1 30-127c18-11 41-16 62-14Zm35 19 1 4c0 2 2 3 4 5 12 8 22 19 27 33a81 81 0 0 1-56 111c-26 6-55-1-75-19a82 82 0 0 1-23-90c9-25 32-45 59-51 21-5 43-2 63 6v1Zm190-1c-1-1-1-2-3-2-8-4-17-5-26-4-15 2-29 9-40 20a88 88 0 0 0-26 77c2 13 9 26 19 36 9 7 19 11 30 12 14 1 27-4 39-11 25-18 40-52 35-82a63 63 0 0 0-23-41l-4-3-1-2Z" fill="#000000"/><path d="m618 150 17 7c2 2 5 4 5 7-1 3-4 6-7 5-10-3-21-3-32-2a95 95 0 0 0-80 57 127 127 0 0 1 100-9c19 6 37 15 54 26a153 153 0 0 1 62 138c-2 16-6 31-14 45-6 10-13 18-22 25s-18 11-27 16c-5 2-11 4-16 3l-4-1v-10c-1-13-4-27-7-40-6-22-14-43-24-64-8-14-16-30-28-41 10 21 15 45 13 69-1 19-6 37-12 55-7 17-16 34-29 48-6 6-14 12-22 13l6-12 7-27c2-13 4-26 4-39a158 158 0 0 1-59 78c-5 3-12 6-19 7-3 0-5-3-4-6l7-9c11-16 20-33 27-51 9-22 12-45 12-68a362 362 0 0 1-48 78c-15 15-31 27-50 37l-26 13c-4 1-8 3-11 0a783 783 0 0 0 13-72c1-18-1-36-4-54-1 8-4 16-8 23-9 18-23 34-38 48l-1 5c-2 14-3 29-2 43 1 15 4 28 8 42 2 8 6 15 9 23 1 2 2 4 1 7s-4 4-7 4a96 96 0 0 1-61-13c-3-2-5-5-10-5-28-1-56-13-75-34-13-16-20-36-23-56-3-29 2-57 12-84a281 281 0 0 1 149-155c26-10 55-17 83-14 16 1 34 6 47 16-1-9 3-17 8-24a128 128 0 0 1 78-49c15-3 33-4 48 1Z" fill="#000000"/></g><g transform="translate(10 -60)"></g></g></svg>